<svg width="313" height="161" viewBox="0 0 313 161" fill="none" xmlns="http://www.w3.org/2000/svg">
<path d="M168.035 75.2956V95.136C167.538 95.1533 167.041 95.2308 166.545 95.3685C166.048 95.5063 165.423 95.7044 164.67 95.9627C163.026 96.5138 161.399 96.953 159.79 97.2802C158.18 97.6075 156.117 97.7711 153.6 97.7711C149.713 97.7711 146.331 96.9875 143.454 95.4202C140.577 93.8357 138.36 91.5537 136.801 88.5742C135.243 85.5947 134.464 82.0383 134.464 77.9048C134.464 73.2375 135.337 69.3969 137.084 66.3829C138.848 63.3518 141.236 61.1387 144.25 59.7436C147.281 58.3314 150.766 57.6252 154.704 57.6252C156.656 57.6252 158.274 57.72 159.559 57.9094C160.86 58.0989 162.315 58.3744 163.925 58.7361C164.815 58.9428 165.483 59.0892 165.928 59.1753L165.672 67.3905C163 66.0126 159.473 65.3237 155.089 65.3237C152.846 65.3237 150.928 65.7974 149.336 66.7446C147.743 67.6918 146.528 69.061 145.689 70.8522C144.867 72.6261 144.456 74.7445 144.456 77.2073C144.456 79.7735 144.798 82.0555 145.483 84.0533C146.185 86.0511 147.212 87.6184 148.565 88.7551C149.918 89.8745 151.545 90.4343 153.445 90.4343C155.877 90.4343 157.761 90.1587 159.096 89.6076V82.7358L153.522 82.3224V75.2956H168.035Z" fill="#444444"/>
<path d="M194.89 90.0209H181.251L179.196 97.3578H168.948L182.561 57.7802H193.709L207.424 97.3578H197.048L194.89 90.0209ZM192.861 83.1491L189.239 70.8264L187.955 65.7371L186.645 70.8264L183.178 83.1491H192.861ZM184.488 54.3185C185.498 53.3196 186.791 51.9073 188.366 50.0818C189.941 48.2389 190.875 46.8784 191.166 46L197.895 49.3584C197.193 50.4262 196.277 51.5715 195.147 52.7943C194.017 54.0171 192.878 55.0935 191.731 56.0235C190.601 56.9363 189.667 57.5047 188.931 57.7286L184.488 54.3185Z" fill="#444444"/>
<path d="M214.554 58.0386C215.29 58.0386 216.531 57.9869 218.278 57.8836C220.71 57.7286 222.576 57.6511 223.877 57.6511C229.117 57.6511 232.927 58.5294 235.307 60.2861C237.705 62.0256 238.903 64.5229 238.903 67.778C238.903 69.9308 238.398 71.808 237.388 73.4097C236.395 74.9942 234.948 76.0534 233.047 76.5873C234.554 76.7768 235.907 77.259 237.105 78.034C238.321 78.809 239.271 79.8338 239.956 81.1082C240.641 82.3827 240.984 83.8294 240.984 85.4483C240.984 87.9973 240.479 90.1759 239.468 91.9843C238.475 93.7755 236.78 95.1791 234.383 96.1952C232.003 97.2114 228.8 97.7194 224.776 97.7194C222.054 97.7194 218.706 97.5989 214.733 97.3578H209.802V58.0128L214.554 58.0386ZM223.287 74.2364C225.444 74.2364 227.028 73.8145 228.038 72.9706C229.066 72.1267 229.58 70.6972 229.58 68.6821C229.58 67.0977 229.023 65.9696 227.91 65.2979C226.797 64.609 225.11 64.2646 222.85 64.2646C222.302 64.2646 221.66 64.2904 220.924 64.3421C220.187 64.3937 219.716 64.4798 219.511 64.6004V74.0298C220.162 74.1675 221.42 74.2364 223.287 74.2364ZM224.288 91.2868C226.566 91.2868 228.244 90.839 229.323 89.9434C230.419 89.0306 230.967 87.5581 230.967 85.5258C230.967 83.7864 230.401 82.4861 229.271 81.6249C228.158 80.7466 226.386 80.3074 223.954 80.3074C223.133 80.3074 222.251 80.3246 221.309 80.3591C220.384 80.3935 219.785 80.4452 219.511 80.5141V90.6926C219.819 90.8993 220.453 91.0543 221.412 91.1576C222.371 91.2437 223.329 91.2868 224.288 91.2868Z" fill="#444444"/>
<path d="M242.143 77.4915C242.263 70.8264 243.992 65.8921 247.331 62.6887C250.67 59.4853 255.216 57.7975 260.97 57.6252C264.634 57.5219 267.794 58.2797 270.448 59.8986C273.119 61.5003 275.148 63.8254 276.535 66.8738C277.922 69.9222 278.581 73.5131 278.513 77.6465C278.427 82.2449 277.597 86.0425 276.021 89.0392C274.446 92.036 272.271 94.2405 269.497 95.6527C266.723 97.065 263.461 97.7711 259.711 97.7711C256.013 97.7711 252.828 96.9444 250.156 95.291C247.485 93.6205 245.465 91.261 244.095 88.2126C242.725 85.1642 242.074 81.5905 242.143 77.4915ZM268.444 77.3623C268.444 73.5561 267.802 70.5508 266.518 68.3463C265.234 66.1246 263.324 65.0137 260.79 65.0137C258.187 65.0137 256.107 66.0126 254.549 68.0105C252.99 70.0083 252.211 73.2634 252.211 77.7757C252.211 80.3074 252.511 82.5377 253.11 84.4666C253.727 86.3784 254.643 87.8767 255.859 88.9617C257.091 90.0295 258.598 90.5634 260.379 90.5634C262.982 90.5634 264.977 89.5129 266.364 87.4117C267.751 85.2933 268.444 81.9435 268.444 77.3623Z" fill="#444444"/>
<path d="M313 97.3578H302.212C302.007 97.0994 301.818 96.8152 301.647 96.5052C301.493 96.178 301.21 95.5322 300.8 94.5677C300.32 93.4654 299.798 92.0532 299.233 90.3309C298.702 88.7637 298.248 87.5323 297.871 86.6367C297.495 85.7411 297.041 84.9833 296.51 84.3633C295.979 83.7433 295.363 83.4075 294.661 83.3558C293.685 83.4247 292.272 83.4591 290.423 83.4591V97.3578H280.662V58.0386H284.027C284.644 58.0386 285.928 57.9869 287.88 57.8836C288.154 57.8664 289.061 57.8233 290.602 57.7544C292.144 57.6683 293.873 57.6252 295.791 57.6252C298.359 57.6252 300.731 58.0041 302.906 58.7619C305.08 59.5197 306.861 60.8286 308.248 62.6887C309.652 64.5315 310.354 67.0029 310.354 70.103C310.354 75.7003 308.291 79.4721 304.164 81.4182C305.055 82.1244 305.825 83.0716 306.476 84.26C307.144 85.4483 307.94 87.1017 308.865 89.2201C309.395 90.4601 309.841 91.4762 310.2 92.2685C310.577 93.0435 310.971 93.7927 311.382 94.516L313 97.3578ZM290.423 76.639C290.919 76.7079 291.673 76.7595 292.683 76.794C293.71 76.8284 294.558 76.837 295.226 76.8198C297.127 76.8198 298.556 76.217 299.515 75.0114C300.474 73.7886 300.954 72.2128 300.954 70.2838C300.954 66.4777 298.83 64.5746 294.584 64.5746C292.923 64.5746 291.536 64.7296 290.423 65.0396V76.639Z" fill="#444444"/>
<path d="M133 115.863V108.267H163.745V115.863H153.317V147.587H143.454V115.863H133Z" fill="#444444"/>
<path d="M184.158 140.25H170.519L168.464 147.587H158.216L171.829 108.009H182.976L196.692 147.587H186.315L184.158 140.25ZM182.129 133.378L178.507 121.055L177.223 115.966L175.913 121.055L172.445 133.378H182.129Z" fill="#444444"/>
<path d="M215.545 108.267L220.297 128.444L222.069 137.615L223.482 128.444L227.694 108.267H240.511L245.494 147.587H236.093L234.295 126.687L233.705 115.372L231.264 126.997L226.025 147.819H217.369L211.667 126.997L209.098 115.372L208.43 126.687L206.889 147.587L197.848 147.612L202.369 108.267H215.545Z" fill="#444444"/>
<path d="M272.04 140.25H258.401L256.347 147.587H246.098L259.711 108.009H270.859L284.575 147.587H274.198L272.04 140.25ZM270.011 133.378L266.39 121.055L265.105 115.966L263.795 121.055L260.328 133.378H270.011ZM261.638 104.547C262.648 103.549 263.941 102.136 265.516 100.311C267.092 98.4678 268.025 97.1073 268.316 96.2289L275.045 99.5873C274.343 100.655 273.427 101.8 272.297 103.023C271.167 104.246 270.028 105.322 268.881 106.252C267.751 107.165 266.818 107.734 266.081 107.957L261.638 104.547Z" fill="#444444"/>
<path d="M287.11 137.925C288.189 138.545 289.688 139.122 291.605 139.656C293.54 140.172 295.45 140.431 297.333 140.431C299.217 140.431 300.587 140.172 301.443 139.656C302.299 139.122 302.727 138.269 302.727 137.098C302.727 136.289 302.479 135.591 301.982 135.006C301.486 134.42 300.749 133.86 299.773 133.326C298.797 132.775 297.136 131.94 294.79 130.82C291.965 129.477 289.73 127.841 288.086 125.912C286.443 123.983 285.621 121.555 285.621 118.627C285.621 116.302 286.194 114.33 287.342 112.711C288.506 111.092 290.133 109.878 292.222 109.068C294.328 108.259 296.777 107.854 299.568 107.854C302.171 107.854 304.422 108.095 306.323 108.578C308.224 109.043 309.645 109.551 310.587 110.102L309.071 117.49C308.232 116.836 306.982 116.259 305.321 115.759C303.677 115.243 302.042 114.984 300.415 114.984C298.617 114.984 297.265 115.277 296.357 115.863C295.467 116.448 295.021 117.258 295.021 118.291C295.021 119.066 295.244 119.755 295.689 120.358C296.152 120.961 296.854 121.546 297.795 122.114C298.737 122.666 300.064 123.337 301.777 124.13C304.225 125.232 306.212 126.325 307.736 127.41C309.277 128.495 310.458 129.761 311.28 131.208C312.102 132.637 312.513 134.351 312.513 136.349C312.513 138.708 311.957 140.767 310.844 142.523C309.748 144.263 308.129 145.615 305.989 146.579C303.849 147.526 301.272 148 298.258 148C296.511 148 294.782 147.871 293.069 147.612C291.374 147.354 289.893 147.036 288.626 146.657C287.359 146.278 286.451 145.916 285.903 145.572L287.11 137.925Z" fill="#444444"/>
<g filter="url(#filter0_d)">
<path d="M41.2456 146.828L41.2456 73.9915H64.6335V146.828H41.2456Z" fill="#3D9AFF"/>
</g>
<g filter="url(#filter1_d)">
<path d="M9.17045 91.8775L116.87 5.83181L116.781 35.883L23.7908 110.177L9.17045 91.8775Z" fill="url(#paint0_linear)"/>
</g>
<g filter="url(#filter2_d)">
<path d="M116.755 146.829C93.874 146.829 75.3252 128.429 75.3252 105.733C75.3252 83.036 93.874 64.6367 116.755 64.6367V84.6835L116.723 84.6835C105.003 84.6835 95.5025 94.1075 95.5025 105.733C95.5025 117.358 105.003 126.782 116.723 126.782L116.755 126.782V146.829Z" fill="#C9D7E7"/>
</g>
<defs>
<filter id="filter0_d" x="36.2456" y="68.9917" width="33.3879" height="82.8366" filterUnits="userSpaceOnUse" color-interpolation-filters="sRGB">
<feFlood flood-opacity="0" result="BackgroundImageFix"/>
<feColorMatrix in="SourceAlpha" type="matrix" values="0 0 0 0 0 0 0 0 0 0 0 0 0 0 0 0 0 0 127 0"/>
<feOffset/>
<feGaussianBlur stdDeviation="2.5"/>
<feColorMatrix type="matrix" values="0 0 0 0 0 0 0 0 0 0 0 0 0 0 0 0 0 0 0.25 0"/>
<feBlend mode="normal" in2="BackgroundImageFix" result="effect1_dropShadow"/>
<feBlend mode="normal" in="SourceGraphic" in2="effect1_dropShadow" result="shape"/>
</filter>
<filter id="filter1_d" x="0.17041" y="0.832031" width="140.32" height="122.345" filterUnits="userSpaceOnUse" color-interpolation-filters="sRGB">
<feFlood flood-opacity="0" result="BackgroundImageFix"/>
<feColorMatrix in="SourceAlpha" type="matrix" values="0 0 0 0 0 0 0 0 0 0 0 0 0 0 0 0 0 0 127 0"/>
<feOffset dy="4"/>
<feGaussianBlur stdDeviation="4.5"/>
<feColorMatrix type="matrix" values="0 0 0 0 0 0 0 0 0 0 0 0 0 0 0 0 0 0 0.25 0"/>
<feBlend mode="normal" in2="BackgroundImageFix" result="effect1_dropShadow"/>
<feBlend mode="normal" in="SourceGraphic" in2="effect1_dropShadow" result="shape"/>
</filter>
<filter id="filter2_d" x="65.3252" y="58.6367" width="61.43" height="102.192" filterUnits="userSpaceOnUse" color-interpolation-filters="sRGB">
<feFlood flood-opacity="0" result="BackgroundImageFix"/>
<feColorMatrix in="SourceAlpha" type="matrix" values="0 0 0 0 0 0 0 0 0 0 0 0 0 0 0 0 0 0 127 0"/>
<feOffset dy="4"/>
<feGaussianBlur stdDeviation="5"/>
<feColorMatrix type="matrix" values="0 0 0 0 0 0 0 0 0 0 0 0 0 0 0 0 0 0 0.1 0"/>
<feBlend mode="normal" in2="BackgroundImageFix" result="effect1_dropShadow"/>
<feBlend mode="normal" in="SourceGraphic" in2="effect1_dropShadow" result="shape"/>
</filter>
<linearGradient id="paint0_linear" x1="72.8774" y1="81.173" x2="36.0558" y2="-38.084" gradientUnits="userSpaceOnUse">
<stop stop-color="#3D9AFF"/>
<stop offset="1" stop-color="white"/>
</linearGradient>
</defs>
</svg>
