<svg width="562" height="233" viewBox="0 0 562 233" fill="none" xmlns="http://www.w3.org/2000/svg">
<path d="M251.375 71.6406V101.641C250.62 101.667 249.865 101.784 249.109 101.992C248.354 102.201 247.404 102.5 246.258 102.891C243.758 103.724 241.284 104.388 238.836 104.883C236.388 105.378 233.25 105.625 229.422 105.625C223.51 105.625 218.367 104.44 213.992 102.07C209.617 99.6745 206.245 96.224 203.875 91.7188C201.505 87.2135 200.32 81.8359 200.32 75.5859C200.32 68.5286 201.648 62.7214 204.305 58.1641C206.987 53.5807 210.62 50.2344 215.203 48.125C219.812 45.9896 225.112 44.9219 231.102 44.9219C234.07 44.9219 236.531 45.0651 238.484 45.3516C240.464 45.638 242.677 46.0547 245.125 46.6016C246.479 46.9141 247.495 47.1354 248.172 47.2656L247.781 59.6875C243.719 57.6042 238.354 56.5625 231.688 56.5625C228.276 56.5625 225.359 57.2786 222.938 58.7109C220.516 60.1432 218.667 62.2135 217.391 64.9219C216.141 67.6042 215.516 70.8073 215.516 74.5312C215.516 78.4115 216.036 81.862 217.078 84.8828C218.146 87.9036 219.708 90.2734 221.766 91.9922C223.823 93.6849 226.297 94.5312 229.188 94.5312C232.885 94.5312 235.75 94.1146 237.781 93.2812V82.8906L229.305 82.2656V71.6406H251.375Z" fill="#444444"/>
<path d="M280.516 59.6875C285.255 59.6875 289.018 60.2474 291.805 61.3672C294.617 62.4609 296.648 64.2318 297.898 66.6797C299.174 69.1016 299.812 72.3828 299.812 76.5234V105.625H290.75C289.578 105.625 288.693 105.547 288.094 105.391C287.495 105.234 287.026 104.87 286.688 104.297C286.349 103.724 286.18 102.812 286.18 101.562V101.25C282.846 104.167 278.706 105.625 273.758 105.625C270.867 105.625 268.315 105.026 266.102 103.828C263.914 102.604 262.221 100.911 261.023 98.75C259.826 96.5885 259.227 94.1406 259.227 91.4062C259.227 88.8281 259.93 86.5755 261.336 84.6484C262.768 82.6953 264.734 81.1849 267.234 80.1172C269.682 79.0755 272.456 78.3724 275.555 78.0078C278.654 77.6172 281.948 77.4219 285.438 77.4219V74.7266C285.438 73.3984 285.216 72.3958 284.773 71.7188C284.357 71.0417 283.576 70.5729 282.43 70.3125C281.31 70.0521 279.604 69.9219 277.312 69.9219C275.62 69.9219 273.432 70.2344 270.75 70.8594C268.094 71.4583 265.802 72.2005 263.875 73.0859L260.945 64.5703C262.117 63.8672 263.758 63.138 265.867 62.3828C267.977 61.6276 270.32 60.9896 272.898 60.4688C275.503 59.9479 278.042 59.6875 280.516 59.6875ZM279.812 96.7188C280.906 96.7188 282 96.5234 283.094 96.1328C284.214 95.7422 284.995 95.3125 285.438 94.8438V84.375C284.031 84.401 282.573 84.5443 281.062 84.8047C279.552 85.0651 278.406 85.3776 277.625 85.7422C276.583 86.1589 275.737 86.7318 275.086 87.4609C274.461 88.1641 274.148 89.2318 274.148 90.6641C274.148 92.6432 274.695 94.1536 275.789 95.1953C276.883 96.2109 278.224 96.7188 279.812 96.7188ZM274.93 50.5078C276.883 48.5547 279.135 45.9896 281.688 42.8125C284.266 39.6094 286.427 36.5885 288.172 33.75L297.664 41.1328C296.883 42.9557 295.477 44.9609 293.445 47.1484C291.414 49.3099 289.266 51.2891 287 53.0859C284.734 54.8828 282.964 56.0807 281.688 56.6797L274.93 50.5078Z" fill="#444444"/>
<path d="M338.25 59.8438C341.505 59.8438 344.461 60.638 347.117 62.2266C349.799 63.7891 351.935 66.1719 353.523 69.375C355.112 72.5521 355.906 76.4583 355.906 81.0938C355.906 86.0677 354.93 90.4297 352.977 94.1797C351.049 97.9036 348.302 100.781 344.734 102.812C341.193 104.818 337.052 105.82 332.312 105.82C329.448 105.82 326.479 105.612 323.406 105.195C320.333 104.805 317.677 104.336 315.438 103.789C313.198 103.242 311.883 102.812 311.492 102.5V40.1172H325.984V56.1719L325.672 64.3359C328.953 61.3411 333.146 59.8438 338.25 59.8438ZM340.789 81.7969C340.789 77.7083 340.138 74.8177 338.836 73.125C337.534 71.4323 335.685 70.5859 333.289 70.5859C331.883 70.5859 330.503 70.8333 329.148 71.3281C327.82 71.7969 326.766 72.3307 325.984 72.9297V94.7656C326.766 95.651 328.797 96.0938 332.078 96.0938C333.745 96.0938 335.242 95.5339 336.57 94.4141C337.898 93.2943 338.927 91.6536 339.656 89.4922C340.411 87.3307 340.789 84.7656 340.789 81.7969Z" fill="#444444"/>
<path d="M362.625 82.3438C362.625 77.5781 363.589 73.5156 365.516 70.1562C367.469 66.7708 370.177 64.2057 373.641 62.4609C377.104 60.7161 381.115 59.8438 385.672 59.8438C390.854 59.8438 395.099 60.8724 398.406 62.9297C401.714 64.987 404.109 67.7474 405.594 71.2109C407.104 74.6745 407.859 78.6068 407.859 83.0078C407.859 87.7995 406.896 91.901 404.969 95.3125C403.042 98.6979 400.346 101.263 396.883 103.008C393.419 104.753 389.409 105.625 384.852 105.625C379.643 105.625 375.385 104.596 372.078 102.539C368.771 100.456 366.362 97.6823 364.852 94.2188C363.367 90.7292 362.625 86.7708 362.625 82.3438ZM392.82 82.9688C392.82 79.0104 392.234 75.8464 391.062 73.4766C389.917 71.0807 388.029 69.8828 385.398 69.8828C382.586 69.8828 380.594 70.8984 379.422 72.9297C378.25 74.9349 377.664 78.0469 377.664 82.2656C377.664 86.3021 378.25 89.5443 379.422 91.9922C380.62 94.4401 382.534 95.6641 385.164 95.6641C387.951 95.6641 389.917 94.6484 391.062 92.6172C392.234 90.5599 392.82 87.3438 392.82 82.9688Z" fill="#444444"/>
<path d="M443.328 59.7656C444.943 59.7656 446.023 59.9479 446.57 60.3125V74.5703C445.346 73.8672 443.758 73.5156 441.805 73.5156C437.612 73.5156 434.24 74.9349 431.688 77.7734V105H417.195V60.4688H429.891L430.516 67.6172C431.115 66.1068 432.039 64.7526 433.289 63.5547C434.565 62.3568 436.062 61.4323 437.781 60.7812C439.526 60.1042 441.375 59.7656 443.328 59.7656Z" fill="#444444"/>
<path d="M198.094 127.031V115.547H244.852V127.031H228.992V175H213.992V127.031H198.094Z" fill="#444444"/>
<path d="M270.594 129.688C275.333 129.688 279.096 130.247 281.883 131.367C284.695 132.461 286.727 134.232 287.977 136.68C289.253 139.102 289.891 142.383 289.891 146.523V175.625H280.828C279.656 175.625 278.771 175.547 278.172 175.391C277.573 175.234 277.104 174.87 276.766 174.297C276.427 173.724 276.258 172.812 276.258 171.562V171.25C272.924 174.167 268.784 175.625 263.836 175.625C260.945 175.625 258.393 175.026 256.18 173.828C253.992 172.604 252.299 170.911 251.102 168.75C249.904 166.589 249.305 164.141 249.305 161.406C249.305 158.828 250.008 156.576 251.414 154.648C252.846 152.695 254.812 151.185 257.312 150.117C259.76 149.076 262.534 148.372 265.633 148.008C268.732 147.617 272.026 147.422 275.516 147.422V144.727C275.516 143.398 275.294 142.396 274.852 141.719C274.435 141.042 273.654 140.573 272.508 140.312C271.388 140.052 269.682 139.922 267.391 139.922C265.698 139.922 263.51 140.234 260.828 140.859C258.172 141.458 255.88 142.201 253.953 143.086L251.023 134.57C252.195 133.867 253.836 133.138 255.945 132.383C258.055 131.628 260.398 130.99 262.977 130.469C265.581 129.948 268.12 129.688 270.594 129.688ZM269.891 166.719C270.984 166.719 272.078 166.523 273.172 166.133C274.292 165.742 275.073 165.312 275.516 164.844V154.375C274.109 154.401 272.651 154.544 271.141 154.805C269.63 155.065 268.484 155.378 267.703 155.742C266.661 156.159 265.815 156.732 265.164 157.461C264.539 158.164 264.227 159.232 264.227 160.664C264.227 162.643 264.773 164.154 265.867 165.195C266.961 166.211 268.302 166.719 269.891 166.719Z" fill="#444444"/>
<path d="M355.828 129.766C358.953 129.74 361.557 130.273 363.641 131.367C365.75 132.435 367.365 134.232 368.484 136.758C369.604 139.284 370.164 142.669 370.164 146.914V175H355.672V149.492C355.672 147.279 355.503 145.573 355.164 144.375C354.826 143.177 354.253 142.331 353.445 141.836C352.638 141.341 351.505 141.107 350.047 141.133C348.797 141.133 347.56 141.419 346.336 141.992C345.112 142.539 344.057 143.203 343.172 143.984C343.224 145.182 343.25 146.133 343.25 146.836V175H328.875V149.531C328.875 147.396 328.706 145.729 328.367 144.531C328.055 143.307 327.508 142.435 326.727 141.914C325.971 141.393 324.917 141.133 323.562 141.133C322.417 141.133 321.128 141.393 319.695 141.914C318.289 142.409 317.117 143.112 316.18 144.023V175H301.727V130.469H314.93L315.281 135.234C316.974 133.828 319.148 132.578 321.805 131.484C324.461 130.391 327.13 129.818 329.812 129.766C332.495 129.688 334.747 130.065 336.57 130.898C338.419 131.706 339.878 133.047 340.945 134.922C342.586 133.62 344.721 132.435 347.352 131.367C349.982 130.273 352.807 129.74 355.828 129.766Z" fill="#444444"/>
<path d="M400.672 129.688C405.411 129.688 409.174 130.247 411.961 131.367C414.773 132.461 416.805 134.232 418.055 136.68C419.331 139.102 419.969 142.383 419.969 146.523V175.625H410.906C409.734 175.625 408.849 175.547 408.25 175.391C407.651 175.234 407.182 174.87 406.844 174.297C406.505 173.724 406.336 172.812 406.336 171.562V171.25C403.003 174.167 398.862 175.625 393.914 175.625C391.023 175.625 388.471 175.026 386.258 173.828C384.07 172.604 382.378 170.911 381.18 168.75C379.982 166.589 379.383 164.141 379.383 161.406C379.383 158.828 380.086 156.576 381.492 154.648C382.924 152.695 384.891 151.185 387.391 150.117C389.839 149.076 392.612 148.372 395.711 148.008C398.81 147.617 402.104 147.422 405.594 147.422V144.727C405.594 143.398 405.372 142.396 404.93 141.719C404.513 141.042 403.732 140.573 402.586 140.312C401.466 140.052 399.76 139.922 397.469 139.922C395.776 139.922 393.589 140.234 390.906 140.859C388.25 141.458 385.958 142.201 384.031 143.086L381.102 134.57C382.273 133.867 383.914 133.138 386.023 132.383C388.133 131.628 390.477 130.99 393.055 130.469C395.659 129.948 398.198 129.688 400.672 129.688ZM399.969 166.719C401.062 166.719 402.156 166.523 403.25 166.133C404.37 165.742 405.151 165.312 405.594 164.844V154.375C404.188 154.401 402.729 154.544 401.219 154.805C399.708 155.065 398.562 155.378 397.781 155.742C396.74 156.159 395.893 156.732 395.242 157.461C394.617 158.164 394.305 159.232 394.305 160.664C394.305 162.643 394.852 164.154 395.945 165.195C397.039 166.211 398.38 166.719 399.969 166.719ZM395.086 120.508C397.039 118.555 399.292 115.99 401.844 112.812C404.422 109.609 406.583 106.589 408.328 103.75L417.82 111.133C417.039 112.956 415.633 114.961 413.602 117.148C411.57 119.31 409.422 121.289 407.156 123.086C404.891 124.883 403.12 126.081 401.844 126.68L395.086 120.508Z" fill="#444444"/>
<path d="M431.023 162.031C431.544 162.474 432.508 163.008 433.914 163.633C435.346 164.258 437 164.805 438.875 165.273C440.75 165.742 442.599 165.977 444.422 165.977C446.609 165.977 448.185 165.716 449.148 165.195C450.138 164.674 450.633 163.854 450.633 162.734C450.633 161.953 450.268 161.25 449.539 160.625C448.81 160 447.768 159.414 446.414 158.867C445.086 158.294 443.276 157.63 440.984 156.875C436.948 155.547 434.018 153.75 432.195 151.484C430.372 149.193 429.474 146.302 429.5 142.812C429.5 140.026 430.307 137.656 431.922 135.703C433.562 133.75 435.776 132.292 438.562 131.328C441.375 130.339 444.526 129.844 448.016 129.844C451.297 129.844 454.188 130.13 456.688 130.703C459.214 131.25 461.102 131.875 462.352 132.578L461.062 142.734C460.49 142.24 459.617 141.732 458.445 141.211C457.273 140.664 455.958 140.221 454.5 139.883C453.068 139.518 451.674 139.336 450.32 139.336C447.872 139.336 446.128 139.583 445.086 140.078C444.044 140.573 443.51 141.341 443.484 142.383C443.484 143.164 443.758 143.841 444.305 144.414C444.852 144.987 445.763 145.56 447.039 146.133C448.315 146.68 450.177 147.331 452.625 148.086C456.844 149.44 459.943 151.172 461.922 153.281C463.927 155.365 464.93 158.099 464.93 161.484C464.93 164.531 464.161 167.122 462.625 169.258C461.089 171.367 458.901 172.969 456.062 174.062C453.25 175.13 449.943 175.664 446.141 175.664C443.823 175.664 441.557 175.469 439.344 175.078C437.13 174.714 435.177 174.258 433.484 173.711C431.792 173.138 430.503 172.578 429.617 172.031L431.023 162.031Z" fill="#444444"/>
<path d="M214.174 194.566C214.867 193.922 215.731 193.077 216.767 192.032C217.812 190.987 218.388 190.309 218.495 189.996L221.674 191.915C221.244 192.472 220.697 193.072 220.033 193.717C219.369 194.352 218.695 194.918 218.012 195.416C217.338 195.914 216.771 196.241 216.312 196.397L214.174 194.566ZM222.348 196.705V200.279H213.412V205.816H220.268V209.347H213.412V215.323H223.3V219H208.754V196.705H222.348Z" fill="#444444"/>
<path d="M235.956 202.066C237.177 202.066 238.29 202.364 239.296 202.96C240.302 203.546 241.103 204.439 241.698 205.641C242.304 206.832 242.606 208.297 242.606 210.035C242.606 211.861 242.25 213.473 241.537 214.869C240.834 216.256 239.838 217.33 238.549 218.092C237.27 218.854 235.79 219.234 234.11 219.234C233.114 219.234 232.191 219.078 231.342 218.766L231.4 221.036V226.412H226.83V202.301H231.093V204C231.63 203.463 232.279 203.009 233.041 202.638C233.803 202.257 234.774 202.066 235.956 202.066ZM237.816 210.284C237.816 208.517 237.538 207.276 236.981 206.563C236.425 205.841 235.614 205.479 234.55 205.479C233.944 205.479 233.358 205.577 232.792 205.772C232.235 205.968 231.771 206.217 231.4 206.52V215.353C231.684 215.606 232.04 215.782 232.47 215.88C232.909 215.978 233.412 216.026 233.979 216.026C234.721 216.026 235.38 215.802 235.956 215.353C236.532 214.903 236.986 214.244 237.318 213.375C237.65 212.506 237.816 211.476 237.816 210.284Z" fill="#444444"/>
<path d="M247.763 197.364C247.763 196.886 247.885 196.441 248.129 196.031C248.373 195.611 248.7 195.279 249.11 195.035C249.53 194.781 249.984 194.654 250.473 194.654C251.254 194.654 251.85 194.884 252.26 195.343C252.67 195.792 252.875 196.383 252.875 197.115C252.875 197.604 252.758 198.058 252.523 198.478C252.289 198.888 251.967 199.215 251.557 199.459C251.146 199.703 250.692 199.825 250.194 199.825C249.462 199.825 248.871 199.596 248.422 199.137C247.982 198.678 247.763 198.087 247.763 197.364ZM254.867 197.364C254.867 196.886 254.989 196.441 255.233 196.031C255.478 195.611 255.805 195.279 256.215 195.035C256.635 194.781 257.089 194.654 257.577 194.654C258.358 194.654 258.954 194.884 259.364 195.343C259.774 195.792 259.979 196.383 259.979 197.115C259.979 197.604 259.862 198.058 259.628 198.478C259.394 198.888 259.071 199.215 258.661 199.459C258.251 199.703 257.797 199.825 257.299 199.825C256.566 199.825 255.976 199.596 255.526 199.137C255.087 198.678 254.867 198.087 254.867 197.364ZM260.873 202.301V219.234H257.855C257.465 219.234 257.182 219.176 257.006 219.059C256.83 218.951 256.742 218.727 256.742 218.385V217.623C256.107 218.072 255.331 218.453 254.413 218.766C253.505 219.078 252.655 219.234 251.864 219.234C250.341 219.234 249.179 218.946 248.378 218.37C247.577 217.794 247.04 216.998 246.767 215.982C246.503 214.967 246.371 213.658 246.371 212.057V202.301H250.941V212.013C250.941 213.058 251.029 213.849 251.205 214.386C251.391 214.913 251.659 215.27 252.011 215.455C252.372 215.641 252.87 215.733 253.505 215.733C253.993 215.733 254.511 215.631 255.058 215.426C255.604 215.221 256.02 215.006 256.303 214.781V202.301H260.873Z" fill="#444444"/>
<path d="M270.629 194.654V219H266.059V194.654H270.629Z" fill="#444444"/>
<path d="M289.276 208.614C289.276 210.021 289.223 211.065 289.115 211.749H279.242C279.33 213.126 279.76 214.151 280.531 214.825C281.312 215.499 282.367 215.836 283.695 215.836C284.33 215.836 285.097 215.753 285.995 215.587C286.903 215.411 287.567 215.206 287.987 214.972L288.734 217.564C288.158 218.033 287.294 218.429 286.142 218.751C284.989 219.073 283.788 219.234 282.538 219.234C280.858 219.234 279.428 218.893 278.246 218.209C277.064 217.525 276.171 216.539 275.565 215.25C274.96 213.951 274.657 212.398 274.657 210.592C274.657 208.951 274.975 207.486 275.609 206.197C276.244 204.908 277.167 203.897 278.378 203.165C279.599 202.433 281.049 202.066 282.729 202.066C283.939 202.066 285.033 202.286 286.01 202.726C286.986 203.165 287.768 203.873 288.354 204.85C288.949 205.826 289.257 207.081 289.276 208.614ZM285.028 209.215C285.038 209.068 285.043 208.854 285.043 208.57C285.043 207.506 284.843 206.7 284.442 206.153C284.042 205.597 283.393 205.318 282.494 205.318C281.596 205.318 280.878 205.616 280.341 206.212C279.813 206.798 279.472 207.799 279.315 209.215H285.028Z" fill="#444444"/>
<path d="M293.788 205.465H291.781V202.989C292.426 202.804 292.89 202.662 293.173 202.564C293.466 202.457 293.725 202.315 293.949 202.14C294.174 201.954 294.35 201.71 294.477 201.407C294.682 200.919 295.048 199.947 295.575 198.492H298.358V202.301H302.885V205.465H298.358V212.174C298.358 213.287 298.417 214.098 298.534 214.605C298.651 215.113 298.837 215.44 299.091 215.587C299.345 215.724 299.735 215.792 300.263 215.792C300.673 215.792 301.142 215.724 301.669 215.587C302.206 215.44 302.602 215.274 302.855 215.089L303.412 217.652C302.953 218.062 302.265 218.429 301.347 218.751C300.438 219.073 299.457 219.234 298.402 219.234C297.279 219.234 296.381 219.063 295.707 218.722C295.043 218.37 294.555 217.818 294.242 217.066C293.939 216.305 293.788 215.294 293.788 214.034V205.465Z" fill="#444444"/>
<path d="M321.239 198.653C322.118 197.833 322.992 196.896 323.861 195.841C324.73 194.786 325.521 193.678 326.234 192.516L329.369 195.064C329.105 195.68 328.583 196.388 327.802 197.188C327.03 197.989 326.21 198.722 325.341 199.386C324.481 200.05 323.842 200.475 323.422 200.66L321.239 198.653ZM329.911 208.614C329.911 210.021 329.857 211.065 329.75 211.749H319.877C319.965 213.126 320.395 214.151 321.166 214.825C321.947 215.499 323.002 215.836 324.33 215.836C324.965 215.836 325.731 215.753 326.63 215.587C327.538 215.411 328.202 215.206 328.622 214.972L329.369 217.564C328.793 218.033 327.929 218.429 326.776 218.751C325.624 219.073 324.423 219.234 323.173 219.234C321.493 219.234 320.062 218.893 318.881 218.209C317.699 217.525 316.806 216.539 316.2 215.25C315.595 213.951 315.292 212.398 315.292 210.592C315.292 208.951 315.609 207.486 316.244 206.197C316.879 204.908 317.802 203.897 319.013 203.165C320.233 202.433 321.684 202.066 323.363 202.066C324.574 202.066 325.668 202.286 326.645 202.726C327.621 203.165 328.402 203.873 328.988 204.85C329.584 205.826 329.892 207.081 329.911 208.614ZM325.663 209.215C325.673 209.068 325.678 208.854 325.678 208.57C325.678 207.506 325.478 206.7 325.077 206.153C324.677 205.597 324.027 205.318 323.129 205.318C322.23 205.318 321.513 205.616 320.976 206.212C320.448 206.798 320.106 207.799 319.95 209.215H325.663Z" fill="#444444"/>
<path d="M333.485 214.547C333.671 214.693 334.018 214.874 334.525 215.089C335.033 215.294 335.619 215.475 336.283 215.631C336.957 215.787 337.621 215.865 338.275 215.865C339.184 215.875 339.848 215.772 340.268 215.558C340.688 215.343 340.897 214.981 340.897 214.474C340.897 214.005 340.604 213.58 340.019 213.199C339.442 212.818 338.529 212.423 337.279 212.013C335.795 211.524 334.721 210.86 334.057 210.021C333.402 209.181 333.075 208.146 333.075 206.915C333.075 205.88 333.358 205.001 333.925 204.278C334.501 203.546 335.297 202.994 336.312 202.623C337.328 202.252 338.495 202.066 339.813 202.066C340.878 202.066 341.83 202.169 342.67 202.374C343.51 202.579 344.125 202.794 344.516 203.019L344.018 206.534C343.686 206.231 343.148 205.968 342.406 205.743C341.674 205.519 340.961 205.406 340.268 205.406C339.271 205.406 338.549 205.514 338.1 205.729C337.66 205.934 337.44 206.275 337.44 206.754C337.44 207.096 337.543 207.389 337.748 207.633C337.953 207.867 338.28 208.097 338.729 208.321C339.188 208.536 339.848 208.79 340.707 209.083C341.85 209.474 342.758 209.903 343.432 210.372C344.115 210.831 344.613 211.363 344.926 211.969C345.238 212.564 345.395 213.277 345.395 214.107C345.395 215.797 344.813 217.076 343.651 217.945C342.499 218.805 340.897 219.234 338.847 219.234C338.075 219.234 337.299 219.171 336.518 219.044C335.736 218.917 335.033 218.756 334.408 218.561C333.793 218.355 333.329 218.15 333.017 217.945L333.485 214.547Z" fill="#444444"/>
<path d="M364.13 196.705V219H359.442V196.705H364.13Z" fill="#444444"/>
<path d="M373.769 202.301L373.856 204.088C374.53 203.58 375.37 203.116 376.376 202.696C377.382 202.276 378.354 202.052 379.291 202.022C380.492 201.983 381.474 202.174 382.235 202.594C382.997 203.004 383.563 203.692 383.935 204.659C384.315 205.616 384.506 206.905 384.506 208.526V219H379.936V209.508C379.936 208.561 379.862 207.828 379.716 207.311C379.569 206.783 379.32 206.407 378.969 206.183C378.617 205.958 378.119 205.855 377.475 205.875C376.986 205.885 376.435 205.997 375.819 206.212C375.204 206.427 374.662 206.739 374.193 207.149V219H369.623V202.301H373.769Z" fill="#444444"/>
<path d="M405.746 205.611H402.978C403.173 206.178 403.271 206.812 403.271 207.516C403.271 209.303 402.621 210.665 401.322 211.603C400.033 212.54 398.207 213.009 395.844 213.009C395.297 213.009 394.813 212.975 394.394 212.906C394.188 213.072 394.032 213.277 393.925 213.521C393.817 213.756 393.764 214.005 393.764 214.269C393.764 214.737 393.91 215.05 394.203 215.206C394.496 215.362 395.009 215.44 395.741 215.44H398.524C400.985 215.44 402.67 215.919 403.578 216.876C404.496 217.823 404.955 219.029 404.955 220.494C404.955 221.744 404.555 222.828 403.754 223.746C402.963 224.664 401.908 225.362 400.59 225.841C399.271 226.319 397.851 226.559 396.327 226.559C393.739 226.559 391.737 226.139 390.321 225.299C388.915 224.469 388.212 223.263 388.212 221.681C388.212 220.909 388.446 220.221 388.915 219.615C389.394 219.02 390.019 218.551 390.79 218.209C390.321 217.965 389.975 217.618 389.75 217.169C389.535 216.72 389.428 216.236 389.428 215.719C389.428 215.055 389.633 214.415 390.043 213.8C390.453 213.185 391.137 212.682 392.094 212.291C391.029 211.832 390.189 211.197 389.574 210.387C388.969 209.566 388.666 208.653 388.666 207.647C388.666 205.733 389.32 204.327 390.629 203.429C391.938 202.521 393.773 202.066 396.137 202.066C398.295 202.066 399.979 202.472 401.19 203.282C401.513 202.999 401.898 202.765 402.348 202.579C402.797 202.394 403.31 202.301 403.886 202.301H405.746V205.611ZM395.917 210.211C396.874 210.211 397.616 210.025 398.144 209.654C398.681 209.283 398.949 208.614 398.949 207.647C398.949 206.739 398.71 206.056 398.231 205.597C397.763 205.128 397.06 204.894 396.122 204.894C395.175 204.894 394.428 205.099 393.881 205.509C393.344 205.909 393.075 206.603 393.075 207.589C393.075 208.409 393.319 209.054 393.808 209.522C394.296 209.981 394.999 210.211 395.917 210.211ZM394.276 219C394.062 219 393.759 218.99 393.368 218.971C392.958 219.342 392.753 219.908 392.753 220.67C392.753 221.588 393.036 222.35 393.603 222.955C394.179 223.561 395.087 223.863 396.327 223.863C397.616 223.863 398.622 223.663 399.345 223.263C400.077 222.872 400.443 222.252 400.443 221.402C400.443 220.826 400.355 220.367 400.18 220.025C400.004 219.693 399.643 219.439 399.096 219.264C398.549 219.088 397.738 219 396.664 219H394.276Z" fill="#444444"/>
<path d="M414.901 201.979C416.522 201.979 417.816 202.159 418.783 202.521C419.76 202.872 420.487 203.492 420.966 204.381C421.444 205.26 421.684 206.495 421.684 208.087V219.234H419.018C418.578 219.234 418.246 219.205 418.021 219.146C417.797 219.088 417.621 218.951 417.494 218.736C417.367 218.521 417.304 218.18 417.304 217.711V217.594C416.796 218.062 416.171 218.453 415.429 218.766C414.687 219.078 413.861 219.234 412.953 219.234C411.879 219.234 410.927 219.005 410.097 218.546C409.276 218.077 408.637 217.433 408.178 216.612C407.729 215.782 407.504 214.845 407.504 213.8C407.504 212.823 407.753 211.988 408.251 211.295C408.759 210.602 409.481 210.045 410.419 209.625C411.874 208.98 414.105 208.658 417.113 208.658V207.604C417.113 206.979 417.03 206.52 416.864 206.227C416.708 205.934 416.4 205.733 415.941 205.626C415.492 205.519 414.779 205.465 413.803 205.465C413.334 205.465 412.621 205.587 411.664 205.831C410.707 206.065 409.887 206.339 409.203 206.651L408.192 203.722C408.583 203.487 409.149 203.233 409.892 202.96C410.634 202.687 411.449 202.457 412.338 202.271C413.227 202.076 414.081 201.979 414.901 201.979ZM414.521 216.144C415.009 216.144 415.521 216.046 416.059 215.851C416.596 215.646 416.947 215.436 417.113 215.221V211.236C416.557 211.236 415.927 211.3 415.224 211.427C414.53 211.544 414.013 211.681 413.671 211.837C413.231 212.003 412.88 212.228 412.616 212.511C412.353 212.794 412.221 213.214 412.221 213.771C412.221 214.552 412.431 215.143 412.851 215.543C413.28 215.943 413.837 216.144 414.521 216.144Z" fill="#444444"/>
<path d="M427.03 205.465H425.023V202.989C425.668 202.804 426.132 202.662 426.415 202.564C426.708 202.457 426.967 202.315 427.191 202.14C427.416 201.954 427.592 201.71 427.719 201.407C427.924 200.919 428.29 199.947 428.817 198.492H431.601V202.301H436.127V205.465H431.601V212.174C431.601 213.287 431.659 214.098 431.776 214.605C431.894 215.113 432.079 215.44 432.333 215.587C432.587 215.724 432.978 215.792 433.505 215.792C433.915 215.792 434.384 215.724 434.911 215.587C435.448 215.44 435.844 215.274 436.098 215.089L436.654 217.652C436.195 218.062 435.507 218.429 434.589 218.751C433.681 219.073 432.699 219.234 431.645 219.234C430.521 219.234 429.623 219.063 428.949 218.722C428.285 218.37 427.797 217.818 427.484 217.066C427.182 216.305 427.03 215.294 427.03 214.034V205.465Z" fill="#444444"/>
<path d="M444.535 194.654V219H439.965V194.654H444.535Z" fill="#444444"/>
<path d="M456.063 201.979C457.685 201.979 458.979 202.159 459.945 202.521C460.922 202.872 461.649 203.492 462.128 204.381C462.606 205.26 462.846 206.495 462.846 208.087V219.234H460.18C459.74 219.234 459.408 219.205 459.184 219.146C458.959 219.088 458.783 218.951 458.656 218.736C458.529 218.521 458.466 218.18 458.466 217.711V217.594C457.958 218.062 457.333 218.453 456.591 218.766C455.849 219.078 455.023 219.234 454.115 219.234C453.041 219.234 452.089 219.005 451.259 218.546C450.438 218.077 449.799 217.433 449.34 216.612C448.891 215.782 448.666 214.845 448.666 213.8C448.666 212.823 448.915 211.988 449.413 211.295C449.921 210.602 450.644 210.045 451.581 209.625C453.036 208.98 455.268 208.658 458.275 208.658V207.604C458.275 206.979 458.192 206.52 458.026 206.227C457.87 205.934 457.562 205.733 457.104 205.626C456.654 205.519 455.941 205.465 454.965 205.465C454.496 205.465 453.783 205.587 452.826 205.831C451.869 206.065 451.049 206.339 450.365 206.651L449.354 203.722C449.745 203.487 450.312 203.233 451.054 202.96C451.796 202.687 452.611 202.457 453.5 202.271C454.389 202.076 455.243 201.979 456.063 201.979ZM455.683 216.144C456.171 216.144 456.684 216.046 457.221 215.851C457.758 215.646 458.109 215.436 458.275 215.221V211.236C457.719 211.236 457.089 211.3 456.386 211.427C455.692 211.544 455.175 211.681 454.833 211.837C454.394 212.003 454.042 212.228 453.778 212.511C453.515 212.794 453.383 213.214 453.383 213.771C453.383 214.552 453.593 215.143 454.013 215.543C454.442 215.943 454.999 216.144 455.683 216.144Z" fill="#444444"/>
<path d="M471.796 202.301L471.884 204.088C472.558 203.58 473.397 203.116 474.403 202.696C475.409 202.276 476.381 202.052 477.318 202.022C478.52 201.983 479.501 202.174 480.263 202.594C481.024 203.004 481.591 203.692 481.962 204.659C482.343 205.616 482.533 206.905 482.533 208.526V219H477.963V209.508C477.963 208.561 477.89 207.828 477.743 207.311C477.597 206.783 477.348 206.407 476.996 206.183C476.645 205.958 476.146 205.855 475.502 205.875C475.014 205.885 474.462 205.997 473.847 206.212C473.231 206.427 472.689 206.739 472.221 207.149V219H467.65V202.301H471.796Z" fill="#444444"/>
<path d="M510.995 196.705V200.279H502.191V206.124H508.666V209.713H502.191V219H497.475V196.705H510.995Z" fill="#444444"/>
<path d="M512.914 210.489C512.914 208.702 513.266 207.179 513.969 205.919C514.672 204.649 515.648 203.692 516.898 203.048C518.148 202.394 519.584 202.066 521.205 202.066C523.051 202.066 524.569 202.457 525.761 203.238C526.952 204.01 527.816 205.05 528.354 206.358C528.9 207.657 529.174 209.127 529.174 210.768C529.174 212.564 528.822 214.098 528.119 215.367C527.416 216.637 526.439 217.599 525.189 218.253C523.939 218.907 522.509 219.234 520.897 219.234C519.042 219.234 517.519 218.844 516.327 218.062C515.136 217.281 514.267 216.236 513.72 214.928C513.183 213.609 512.914 212.13 512.914 210.489ZM524.442 210.782C524.442 209.22 524.164 207.921 523.607 206.886C523.051 205.841 522.206 205.318 521.073 205.318C518.788 205.318 517.646 207.018 517.646 210.416C517.646 211.441 517.763 212.379 517.997 213.229C518.241 214.068 518.617 214.742 519.125 215.25C519.643 215.758 520.287 216.012 521.059 216.012C523.314 216.012 524.442 214.269 524.442 210.782Z" fill="#444444"/>
<path d="M533.671 205.465H531.664V202.989C532.309 202.804 532.772 202.662 533.056 202.564C533.349 202.457 533.607 202.315 533.832 202.14C534.057 201.954 534.232 201.71 534.359 201.407C534.564 200.919 534.931 199.947 535.458 198.492H538.241V202.301H542.768V205.465H538.241V212.174C538.241 213.287 538.3 214.098 538.417 214.605C538.534 215.113 538.72 215.44 538.974 215.587C539.228 215.724 539.618 215.792 540.146 215.792C540.556 215.792 541.024 215.724 541.552 215.587C542.089 215.44 542.484 215.274 542.738 215.089L543.295 217.652C542.836 218.062 542.147 218.429 541.229 218.751C540.321 219.073 539.34 219.234 538.285 219.234C537.162 219.234 536.264 219.063 535.59 218.722C534.926 218.37 534.438 217.818 534.125 217.066C533.822 216.305 533.671 215.294 533.671 214.034V205.465Z" fill="#444444"/>
<path d="M551.688 198.668C552.567 197.848 553.441 196.91 554.311 195.855C555.18 194.801 555.971 193.692 556.684 192.53L559.818 195.079C559.555 195.694 559.032 196.402 558.251 197.203C557.479 198.004 556.659 198.736 555.79 199.4C554.931 200.064 554.291 200.489 553.871 200.675L551.688 198.668ZM545.375 210.489C545.375 208.702 545.727 207.179 546.43 205.919C547.133 204.649 548.109 203.692 549.359 203.048C550.609 202.394 552.045 202.066 553.666 202.066C555.512 202.066 557.03 202.457 558.222 203.238C559.413 204.01 560.277 205.05 560.814 206.358C561.361 207.657 561.635 209.127 561.635 210.768C561.635 212.564 561.283 214.098 560.58 215.367C559.877 216.637 558.9 217.599 557.65 218.253C556.4 218.907 554.97 219.234 553.358 219.234C551.503 219.234 549.979 218.844 548.788 218.062C547.597 217.281 546.728 216.236 546.181 214.928C545.644 213.609 545.375 212.13 545.375 210.489ZM556.903 210.782C556.903 209.22 556.625 207.921 556.068 206.886C555.512 205.841 554.667 205.318 553.534 205.318C551.249 205.318 550.106 207.018 550.106 210.416C550.106 211.441 550.224 212.379 550.458 213.229C550.702 214.068 551.078 214.742 551.586 215.25C552.104 215.758 552.748 216.012 553.52 216.012C555.775 216.012 556.903 214.269 556.903 210.782Z" fill="#444444"/>
<g filter="url(#filter0_d)">
<path d="M59 219L59 110H94L94 219H59Z" fill="#3D9AFF"/>
</g>
<g filter="url(#filter1_d)">
<path d="M11.1532 137.964L172.241 4.99994L172.241 54.2615L33.0167 165.362L11.1532 137.964Z" fill="url(#paint0_linear)"/>
</g>
<g filter="url(#filter2_d)">
<path fill-rule="evenodd" clip-rule="evenodd" d="M172 219C137.758 219 110 191.466 110 157.5C110 123.534 137.758 96 172 96V126C171.984 126 171.968 126 171.951 126V189C171.968 189 171.984 189 172 189V219ZM140.195 157.5C140.195 174.897 154.413 189 171.951 189V126C154.413 126 140.195 140.103 140.195 157.5Z" fill="#C9D7E7"/>
</g>
<defs>
<filter id="filter0_d" x="54" y="105" width="45" height="119" filterUnits="userSpaceOnUse" color-interpolation-filters="sRGB">
<feFlood flood-opacity="0" result="BackgroundImageFix"/>
<feColorMatrix in="SourceAlpha" type="matrix" values="0 0 0 0 0 0 0 0 0 0 0 0 0 0 0 0 0 0 127 0"/>
<feOffset/>
<feGaussianBlur stdDeviation="2.5"/>
<feColorMatrix type="matrix" values="0 0 0 0 0 0 0 0 0 0 0 0 0 0 0 0 0 0 0.25 0"/>
<feBlend mode="normal" in2="BackgroundImageFix" result="effect1_dropShadow"/>
<feBlend mode="normal" in="SourceGraphic" in2="effect1_dropShadow" result="shape"/>
</filter>
<filter id="filter1_d" x="0" y="0" width="205.258" height="178.362" filterUnits="userSpaceOnUse" color-interpolation-filters="sRGB">
<feFlood flood-opacity="0" result="BackgroundImageFix"/>
<feColorMatrix in="SourceAlpha" type="matrix" values="0 0 0 0 0 0 0 0 0 0 0 0 0 0 0 0 0 0 127 0"/>
<feOffset dy="4"/>
<feGaussianBlur stdDeviation="4.5"/>
<feColorMatrix type="matrix" values="0 0 0 0 0 0 0 0 0 0 0 0 0 0 0 0 0 0 0.25 0"/>
<feBlend mode="normal" in2="BackgroundImageFix" result="effect1_dropShadow"/>
<feBlend mode="normal" in="SourceGraphic" in2="effect1_dropShadow" result="shape"/>
</filter>
<filter id="filter2_d" x="100" y="90" width="82" height="143" filterUnits="userSpaceOnUse" color-interpolation-filters="sRGB">
<feFlood flood-opacity="0" result="BackgroundImageFix"/>
<feColorMatrix in="SourceAlpha" type="matrix" values="0 0 0 0 0 0 0 0 0 0 0 0 0 0 0 0 0 0 127 0"/>
<feOffset dy="4"/>
<feGaussianBlur stdDeviation="5"/>
<feColorMatrix type="matrix" values="0 0 0 0 0 0 0 0 0 0 0 0 0 0 0 0 0 0 0.1 0"/>
<feBlend mode="normal" in2="BackgroundImageFix" result="effect1_dropShadow"/>
<feBlend mode="normal" in="SourceGraphic" in2="effect1_dropShadow" result="shape"/>
</filter>
<linearGradient id="paint0_linear" x1="106.5" y1="122" x2="51.5" y2="-56.5" gradientUnits="userSpaceOnUse">
<stop stop-color="#3D9AFF"/>
<stop offset="1" stop-color="white"/>
</linearGradient>
</defs>
</svg>
